<svg xmlns="http://www.w3.org/2000/svg" width="407" height="50" viewBox="0 0 407 50" fill="none">
    <path fill-rule="evenodd" clip-rule="evenodd" d="M402.342 21.847C403.737 23.0893 405.201 24.2013 406.728 24.9993C405.201 25.7973 403.737 26.9093 402.342 28.1516C399.744 30.466 397.126 33.4795 394.533 36.4633L394.476 36.5295C394.279 36.7559 394.083 36.9821 393.886 37.2077C391.047 40.4702 388.233 43.6374 385.379 45.9938C382.503 48.369 379.806 49.731 377.22 49.731H29.7815C27.1949 49.731 24.4988 48.369 21.622 45.9938C18.768 43.6374 15.9541 40.4702 13.1151 37.2077C12.9 36.9605 12.6846 36.7126 12.4691 36.4645C9.87634 33.4804 7.25768 30.4663 4.65915 28.1516C3.26453 26.9093 1.80012 25.7973 0.273682 24.9993C1.80012 24.2013 3.26453 23.0893 4.65915 21.847C7.25767 19.5323 9.87632 16.5183 12.469 13.5341L12.4701 13.5329C12.6853 13.2852 12.9003 13.0377 13.1151 12.7908C15.9541 9.5284 18.768 6.36118 21.622 4.00476C24.4988 1.6296 27.1949 0.267578 29.7815 0.267578H377.22C379.806 0.267578 382.503 1.6296 385.379 4.00476C388.233 6.36119 391.047 9.5284 393.886 12.7908C394.014 12.9374 394.141 13.0842 394.269 13.2311L394.533 13.5346C397.125 16.5186 399.744 19.5324 402.342 21.847Z" fill="url(#paint0_linear_0_58)"/>
    <defs>
        <linearGradient id="paint0_linear_0_58" x1="288.501" y1="-1.34218" x2="288.501" y2="51.9912" gradientUnits="userSpaceOnUse">
            <stop stop-color="#2A303E"/>
            <stop offset="1" stop-color="#161D2E"/>
        </linearGradient>
    </defs>
</svg>